<svg viewBox="0 0 800 800" xmlns="http://www.w3.org/2000/svg"><path d="M180.42606525762437,525.4369343746899 L180.42606280385868,525.4364286191229 M409.816187506957,578.2828588009199 L409.8161876164625,578.2823524661038 M180.42606525762437,525.4369343746899 L198.98864578535458,535.4191209672075 M198.98864578535458,535.4191209672075 L218.9159749562382,544.491735245636 M218.9159749562382,544.491735245636 L240.07423765144054,552.592045677858 M240.07423765144054,552.592045677858 L262.32076464253845,559.6639081832618 M262.32076464253845,559.6639081832618 L285.5051128410195,565.6582037076892 M285.5051128410195,565.6582037076892 L309.46996084063784,570.533248354595 M309.46996084063784,570.533248354595 L334.05243913973516,574.2550667259081 M334.05243913973516,574.2550667259081 L359.08510277617546,576.7977122259638 M359.08510277617546,576.7977122259638 L384.3972576434243,578.1434425163127 M384.3972576434243,578.1434425163127 L409.816187506957,578.2828588009199 M180.42606280385868,525.4364286191229 L198.9886435380095,535.4186151020155 M198.9886435380095,535.4186151020155 L218.9159729308378,544.4912292808924 M218.9159729308378,544.4912292808924 L240.07423586200832,552.5915396242998 M240.07423586200832,552.5915396242998 L262.3207631014897,559.6634020522176 M262.3207631014897,559.6634020522176 L285.50511155906617,565.6576975110045 M285.50511155906617,565.6576975110045 L309.46995982670387,570.532742104552 M309.46995982670387,570.532742104552 L334.0524384008882,574.2545604351448 M334.0524384008882,574.2545604351448 L359.0851023175704,576.7972059073893 M359.0851023175704,576.7972059073893 L384.3972574682628,578.1429361830212 M384.3972574682628,578.1429361830212 L409.8161876164625,578.2823524661038 M708.1835281610204,576.5517194532769 L708.1835316116968,576.5512131373926 M409.816187506957,578.2828588009199 L708.1835281610204,576.5517194532769 M409.8161876164625,578.2823524661038 L708.1835316116968,576.5512131373926 M708.8147805069483,404.24630516701905 L708.8147839386472,404.24580075015956 M708.1835281610204,576.5517194532769 L708.8147805069483,404.24630516701905 M708.1835316116968,576.5512131373926 L708.8147839386472,404.24580075015956 M617.2234711320424,273.25183451176446 L617.2234735318808,273.2513315580811 M708.8147805069483,404.24630516701905 L708.379159058319,389.68802305727144 M708.379159058319,389.68802305727144 L705.8901576510895,375.2080262393243 M705.8901576510895,375.2080262393243 L701.3682459090618,360.9024128589469 M701.3682459090618,360.9024128589469 L694.847258313967,346.8657712564876 M694.847258313967,346.8657712564876 L686.3740727261227,333.190579256381 M686.3740727261227,333.190579256381 L676.008256440633,319.96655306765115 M676.008256440633,319.96655306765115 L663.8214991932377,307.2802005245838 M663.8214991932377,307.2802005245838 L649.8971546287285,295.2141707627155 M649.8971546287285,295.2141707627155 L634.3295824051836,283.846848061686 M634.3295824051836,283.846848061686 L617.2234711320424,273.25183451176446 M708.8147839386472,404.24580075015956 L708.3791624829789,389.6875188021945 M708.3791624829789,389.6875188021945 L705.8901610459366,375.2075221453658 M705.8901610459366,375.2075221453658 L701.3682492516069,360.9019089243681 M701.3682492516069,360.9019089243681 L694.8472615821513,346.86526747848666 M694.8472615821513,346.86526747848666 L686.3740758984584,333.19007563111154 M686.3740758984584,333.19007563111154 L676.0082594963384,319.9660495902483 M676.0082594963384,319.9660495902483 L663.8215021123659,307.2796971891966 M663.8215021123659,307.2796971891966 L649.8971573922885,295.2136675625461 M649.8971573922885,295.2136675625461 L634.329584995255,283.84634498903444 M634.329584995255,283.84634498903444 L617.2234735318808,273.2513315580811 M617.2234711320424,273.25183451176446 L597.3771853881339,262.86288156292176 M597.3771853881339,262.86288156292176 L576.0559932490031,253.50978071621802 M576.0559932490031,253.50978071621802 L553.4208939730573,245.26107037964977 M553.4208939730573,245.26107037964977 L529.6420945027043,238.17705233995926 M529.6420945027043,238.17705233995926 L504.89782188180396,232.30940724363043 M504.89782188180396,232.30940724363043 L479.37302246365704,227.7008533993705 M479.37302246365704,227.7008533993705 L453.25805664096043,224.38491033686026 M453.25805664096043,224.38491033686026 L426.7473473989631,222.38566777460767 M426.7473473989631,222.38566777460767 L400.0380943222623,221.7176435725339 M400.0380943222623,221.7176435725339 L373.32884124556153,222.38566777460767 M373.32884124556153,222.38566777460767 L346.8181320035642,224.38491033686026 M346.8181320035642,224.38491033686026 L320.70316618086764,227.7008533993705 M320.70316618086764,227.7008533993705 L295.17836676272066,232.30940724363043 M295.17836676272066,232.30940724363043 L270.43409414182037,238.17705233995926 M270.43409414182037,238.17705233995926 L246.65529467146726,245.26107037964977 M246.65529467146726,245.26107037964977 L224.02019539552157,253.50978071621802 M224.02019539552157,253.50978071621802 L202.69900325639074,262.86288156292176 M202.69900325639074,262.86288156292176 L182.8527175124827,273.2518345117641 M182.8527175124827,273.2518345117641 L164.63192033675656,284.6003141906105 M164.63192033675656,284.6003141906105 L148.17563525438803,296.8246928118584 M148.17563525438803,296.8246928118584 L133.61028553757302,309.8346008247672 M133.61028553757302,309.8346008247672 L121.04868658646126,323.5335479573613 M121.04868658646126,323.5335479573613 L110.58913209964078,337.81955528420707 M110.58913209964078,337.81955528420707 L102.31454201839836,352.5858776595449 M102.31454201839836,352.5858776595449 L96.29178811392927,367.7217549446608 M96.29178811392927,367.7217549446608 L92.57103043440617,383.1132159952449 M92.57103043440617,383.1132159952449 L91.18521949305136,398.64387027694124 M91.18521949305136,398.64387027694124 L92.14965948023848,414.19580868101076 M92.14965948023848,414.19580868101076 L95.46184812055822,429.6504755261995 M95.46184812055822,429.6504755261995 L101.10124837762407,444.8895600688375 M101.10124837762407,444.8895600688375 L109.02934710735587,459.79595584782203 M109.02934710735587,459.79595584782203 L119.18980004233026,474.2546473220906 M119.18980004233026,474.2546473220906 L131.50877546812404,488.1536430844725 M131.50877546812404,488.1536430844725 L145.89535218163772,501.3848863825037 M145.89535218163772,501.3848863825037 L162.24214724483855,513.8451624456677 M162.24214724483855,513.8451624456677 L180.42606525762437,525.4369343746899 M617.2234735318808,273.2513315580811 L597.3771875676726,262.86237872599963 M597.3771875676726,262.86237872599963 L576.0559951922511,253.5092779845055 M576.0559951922511,253.5092779845055 L553.420895665793,245.26056774079512 M553.420895665793,245.26056774079512 L529.6420959325673,238.17654978090445 M529.6420959325673,238.17654978090445 L504.89782303837313,232.30890475071044 M504.89782303837313,232.30890475071044 L479.3730233385169,227.70035095841754 M479.3730233385169,227.70035095841754 L453.2580572277531,224.38440793331154 M453.2580572277531,224.38440793331154 L426.74734769342786,222.38516539361584 M426.74734769342786,222.38516539361584 L400.0380943222623,221.71714119908 M400.0380943222623,221.71714119908 L373.32884095109677,222.38516539361584 M373.32884095109677,222.38516539361584 L346.8181314167715,224.38440793331154 M346.8181314167715,224.38440793331154 L320.70316530600775,227.70035095841746 M320.70316530600775,227.70035095841746 L295.1783656061515,232.30890475071044 M295.1783656061515,232.30890475071044 L270.4340927119575,238.17654978090445 M270.4340927119575,238.17654978090445 L246.65529297873164,245.26056774079512 M246.65529297873164,245.26056774079512 L224.02019345227362,253.5092779845055 M224.02019345227362,253.5092779845055 L202.69900107685197,262.86237872599963 M202.69900107685197,262.86237872599963 L182.85271511264432,273.25133155808084 M182.85271511264432,273.25133155808084 L164.6319177342755,284.59981110950275 M164.6319177342755,284.59981110950275 L148.17563246847084,296.82418959363235 M148.17563246847084,296.82418959363235 L133.61028258884778,309.83409746077245 M133.61028258884778,309.83409746077245 L121.04868349683778,323.53304444005676 M121.04868349683778,323.53304444005676 L110.58912889216026,337.81905160721834 M110.58912889216026,337.81905160721834 L102.31453871707208,352.58537381771333 M102.31453871707208,352.58537381771333 L96.2917847435686,367.7212509340824 M96.2917847435686,367.7212509340824 L92.5710270204433,383.1127118133002 M92.5710270204433,383.1127118133002 L91.18521606135278,398.6433659223156 M91.18521606135278,398.6433659223156 L92.14965605691174,414.1953041537042 M92.14965605691174,414.1953041537042 L95.46184473175435,429.6499708275268 M95.46184473175435,429.6499708275268 L101.10124504933566,444.8890552014178 M101.10124504933566,444.8890552014178 L109.02934386521326,459.79545081555966 M109.02934386521326,459.79545081555966 L119.18979691139776,474.2541421301441 M119.18979691139776,474.2541421301441 L131.50877247269784,488.15313773921616 M131.50877247269784,488.15313773921616 L145.89534934504658,501.3843808914788 M145.89534934504658,501.3843808914788 L162.24214458925013,513.8446568175249 M162.24214458925013,513.8446568175249 L180.42606280385868,525.4364286191229" stroke="black"  stroke-width="4"  fill="red"/></svg>